<?xml version="1.0" standalone="no"?>
<!DOCTYPE svg PUBLIC "-//W3C//DTD SVG 20010904//EN"
 "http://www.w3.org/TR/2001/REC-SVG-20010904/DTD/svg10.dtd">
<svg version="1.0" xmlns="http://www.w3.org/2000/svg"
 width="860.000000pt" height="753.000000pt" viewBox="0 0 860.000000 753.000000"
 preserveAspectRatio="xMidYMid meet">

<g transform="translate(0.000000,753.000000) scale(0.100000,-0.100000)"
fill="#000000" stroke="none">
<path d="M6366 7118 c-43 -6 -75 -18 -113 -43 -108 -72 -139 -166 -131 -404 4
-128 7 -140 36 -201 25 -51 32 -78 32 -125 l0 -60 -68 -65 c-98 -94 -145 -116
-262 -123 -186 -12 -336 -91 -396 -209 -37 -73 -54 -161 -54 -285 0 -109 -1
-114 -49 -240 -58 -151 -77 -214 -91 -306 -9 -58 -22 -88 -87 -194 -41 -70
-87 -152 -100 -182 -68 -152 -117 -289 -149 -415 -61 -242 -72 -262 -256 -447
-103 -104 -158 -165 -154 -175 11 -28 53 -12 124 48 68 58 62 35 -32 -117 -42
-68 -44 -100 -6 -100 19 0 36 15 72 64 27 35 48 61 48 58 0 -3 -16 -40 -35
-83 -40 -88 -44 -120 -15 -129 11 -3 24 -4 29 0 6 3 34 51 63 106 29 56 54 96
56 90 2 -6 -6 -44 -18 -84 -26 -89 -24 -131 7 -135 30 -4 51 30 75 125 24 95
76 213 94 213 18 0 38 -33 58 -96 16 -48 47 -94 64 -94 5 0 16 6 25 12 16 12
14 27 -30 199 l-47 187 49 108 c51 114 172 317 235 394 96 118 165 259 181
367 7 52 17 72 64 135 72 94 127 205 150 298 23 93 28 82 49 -116 10 -88 28
-186 44 -239 25 -83 27 -102 26 -260 -2 -212 -12 -273 -84 -499 -95 -297 -110
-386 -112 -676 -2 -160 2 -282 11 -351 20 -157 10 -396 -22 -524 -13 -55 -27
-143 -30 -195 -4 -78 -11 -108 -37 -165 -17 -38 -47 -117 -66 -175 -38 -110
-41 -136 -64 -470 -6 -91 -15 -226 -20 -300 -5 -74 -12 -243 -16 -375 -6 -227
-6 -244 13 -286 27 -61 64 -77 142 -61 73 15 103 39 120 93 8 24 26 71 40 104
17 41 25 77 25 113 -1 50 -4 57 -51 105 l-51 52 18 70 c27 109 162 400 214
460 44 51 58 117 66 315 10 230 26 312 78 410 68 127 119 290 152 480 12 72
38 160 83 280 78 211 97 293 104 470 4 89 12 152 23 185 l18 50 18 -40 c12
-29 21 -91 30 -225 6 -102 19 -205 27 -230 8 -25 42 -122 75 -216 34 -94 75
-234 91 -310 40 -188 73 -289 138 -419 68 -135 82 -205 83 -415 0 -155 11
-225 42 -287 8 -15 47 -89 86 -163 67 -127 145 -313 163 -389 7 -32 5 -37 -47
-85 -30 -29 -54 -59 -54 -68 0 -31 50 -212 71 -255 24 -50 59 -72 128 -80 59
-7 127 24 137 62 9 36 -3 647 -15 790 -45 524 -55 603 -90 684 -100 231 -93
207 -102 346 -4 83 -15 155 -28 200 -17 58 -21 99 -22 240 -1 94 3 217 9 275
5 58 9 211 8 340 -2 266 -8 298 -111 661 -66 232 -77 303 -78 504 -1 152 1
165 31 264 20 66 38 158 48 248 10 79 19 142 21 140 2 -3 13 -37 24 -77 26
-95 80 -203 143 -288 45 -59 53 -77 69 -157 21 -109 76 -225 147 -313 28 -35
65 -87 82 -115 17 -29 60 -98 95 -155 127 -205 132 -227 83 -449 -34 -156 -36
-179 -15 -187 22 -8 51 29 81 106 19 47 32 68 44 68 22 0 70 -106 100 -220 12
-47 27 -91 32 -97 14 -18 43 -16 59 3 12 15 10 38 -17 154 -3 14 18 -12 48
-57 55 -85 67 -97 93 -87 24 9 18 56 -15 115 -42 76 -37 82 16 21 46 -52 77
-65 88 -36 7 19 -11 62 -62 147 -22 37 -38 67 -35 67 3 0 28 -21 55 -46 51
-47 81 -54 101 -22 9 13 -4 30 -69 95 -105 103 -229 243 -253 285 -11 19 -43
112 -70 208 -49 173 -105 332 -154 441 -25 56 -123 229 -160 282 -14 20 -20
48 -22 95 -3 79 -36 185 -102 322 l-45 95 1 111 c3 203 -32 319 -121 399 -76
68 -248 124 -381 125 -67 0 -107 18 -186 83 -75 63 -91 91 -91 158 0 42 8 76
33 130 32 73 32 75 32 234 0 232 -32 313 -145 370 -66 34 -115 42 -184 33z
m146 -45 c126 -48 168 -135 168 -346 0 -83 -3 -94 -36 -157 -55 -106 -95 -146
-155 -159 -146 -32 -240 9 -305 132 l-39 72 0 135 c0 85 5 152 13 180 17 56
83 122 143 143 59 21 158 21 211 0z m133 -580 c-15 -32 -30 -83 -34 -113 l-6
-55 -27 39 -27 39 38 51 c21 28 47 66 57 84 29 51 29 19 -1 -45z m-462 15 c14
-24 37 -54 51 -67 31 -29 32 -43 9 -82 -24 -40 -33 -36 -33 14 0 26 -11 66
-30 105 -17 35 -30 66 -30 68 0 12 11 0 33 -38z m387 -170 c19 -34 70 -97 113
-140 42 -43 73 -78 68 -78 -11 0 -279 76 -314 89 -28 11 -28 12 -25 88 l3 77
45 12 c70 19 73 17 110 -48z m-225 39 l50 -13 3 -72 c2 -62 0 -72 -17 -81 -25
-14 -343 -102 -348 -97 -2 2 18 20 44 41 85 67 133 119 169 178 20 31 38 57
42 57 4 0 30 -6 57 -13z m179 -212 c63 -19 152 -44 198 -55 46 -11 89 -23 96
-25 9 -3 -1 -25 -33 -69 -71 -100 -106 -227 -120 -435 -7 -107 -16 -133 -81
-233 -26 -40 -74 -126 -107 -191 l-59 -118 -23 21 c-13 12 -29 36 -36 53 -6
18 -54 107 -106 199 -101 177 -112 214 -113 353 0 77 -32 230 -58 281 -11 21
-34 56 -51 78 -17 21 -31 44 -31 50 0 6 57 26 127 45 70 19 159 44 198 57 38
12 73 22 78 23 4 1 59 -15 121 -34z m-537 -116 c16 -26 15 -28 -32 -82 -32
-38 -74 -70 -132 -103 -95 -53 -112 -72 -121 -139 l-7 -47 -86 -35 c-48 -19
-105 -50 -127 -69 -22 -19 -43 -34 -46 -34 -3 0 -6 38 -6 83 0 86 25 210 55
266 57 110 247 193 433 187 46 -1 56 -5 69 -27z m1078 16 c96 -25 179 -70 229
-126 66 -74 87 -139 94 -286 2 -68 2 -123 -1 -123 -4 0 -25 20 -48 44 -32 36
-56 50 -117 71 -42 14 -82 29 -88 33 -6 4 -13 29 -16 55 -7 59 -29 84 -111
128 -62 32 -187 142 -187 163 0 7 7 22 16 34 13 19 24 22 92 22 43 0 105 -7
137 -15z m-995 -137 c22 -42 46 -170 55 -304 l7 -91 -32 -6 c-17 -4 -63 -22
-102 -41 -119 -59 -185 -56 -236 9 -24 31 -46 149 -40 216 7 67 28 94 107 134
50 25 85 53 128 100 l58 65 18 -23 c10 -12 26 -39 37 -59z m921 -78 c52 -28
86 -54 95 -71 27 -54 10 -224 -30 -284 -24 -37 -79 -58 -128 -50 -22 4 -69 22
-103 40 -35 19 -79 37 -99 40 l-36 7 0 78 c0 133 36 288 85 362 l25 37 55 -58
c35 -37 84 -74 136 -101z m-1245 -441 c5 -45 0 -78 -25 -170 -38 -134 -83
-232 -147 -312 -45 -57 -46 -58 -92 -55 l-47 3 2 40 c2 22 12 72 24 110 29 94
29 153 0 176 -12 10 -28 16 -36 13 -21 -9 -46 -81 -51 -153 -6 -75 -32 -191
-44 -191 -10 0 -27 44 -39 100 -16 74 13 193 100 414 40 100 80 166 119 193
12 9 58 30 103 49 l81 33 23 -97 c13 -53 26 -122 29 -153z m1533 186 c15 -7
41 -29 58 -48 34 -39 109 -189 146 -294 28 -76 59 -224 52 -245 -2 -7 -11 -39
-20 -70 -9 -34 -21 -58 -29 -58 -18 0 -34 66 -40 166 -3 45 -13 100 -22 123
-13 34 -21 41 -43 41 -20 0 -31 -7 -39 -25 -17 -36 -15 -50 13 -145 14 -46 25
-103 25 -127 l0 -44 -42 3 c-40 3 -47 8 -96 73 -70 93 -114 187 -147 317 -30
114 -29 121 6 298 6 30 13 65 15 76 l4 22 65 -24 c37 -13 79 -31 94 -39z
m-1126 -145 c13 -30 41 -82 63 -115 23 -33 68 -113 102 -178 l60 -118 -46 -29
c-143 -88 -162 -118 -173 -280 -8 -119 -23 -172 -71 -241 -30 -45 -34 -47 -40
-27 -3 13 -6 46 -7 73 -1 62 -33 133 -100 219 -96 126 -119 177 -131 301 -6
61 -17 151 -25 200 -8 50 -16 116 -19 147 l-5 58 39 -20 c22 -11 55 -20 74
-20 44 0 119 28 171 64 59 39 82 32 108 -34z m655 20 c117 -59 149 -61 245
-12 4 2 6 -18 3 -45 -30 -262 -48 -406 -56 -444 -10 -52 -48 -118 -133 -231
-68 -92 -76 -109 -91 -213 l-12 -80 -28 41 c-45 69 -67 142 -75 249 -11 148
-47 213 -145 262 -28 14 -56 30 -63 35 -15 12 31 112 131 283 42 71 81 144 87
162 14 44 39 43 137 -7z m-1338 -334 c0 -11 -12 -60 -26 -108 -15 -51 -24
-105 -22 -130 3 -43 3 -43 46 -46 l42 -3 -6 -57 c-6 -56 -58 -197 -91 -250 -9
-15 -38 -54 -63 -87 -112 -145 -230 -343 -289 -489 -12 -29 -12 -29 -79 -23
-64 5 -122 23 -122 36 0 4 13 38 30 77 16 39 52 151 81 250 49 174 93 292 146
398 35 71 145 246 153 246 4 0 10 -14 14 -32 7 -35 32 -68 51 -68 22 0 44 75
54 183 10 105 16 132 35 156 8 11 13 9 28 -9 10 -12 18 -32 18 -44z m1935 24
c9 -16 20 -78 26 -136 17 -184 54 -225 98 -109 l19 49 41 -64 c100 -156 211
-414 266 -619 19 -74 47 -161 61 -195 38 -90 37 -96 -21 -117 -27 -10 -68 -18
-90 -18 l-40 -1 -27 68 c-34 83 -179 321 -260 425 -33 43 -79 120 -103 170
-43 92 -74 213 -58 228 4 4 24 9 43 11 34 3 35 5 38 46 2 25 -7 79 -22 130
-26 86 -32 142 -19 155 14 15 33 6 48 -23z m-916 -172 c31 -17 67 -40 80 -52
38 -34 71 -114 71 -176 1 -108 38 -231 91 -299 11 -13 19 -29 19 -35 0 -6 -34
-22 -75 -35 -95 -30 -168 -82 -225 -160 -25 -34 -46 -61 -47 -61 -1 0 -11 17
-22 38 -39 76 -150 159 -256 191 -22 7 -46 14 -53 17 -9 2 0 21 27 57 56 73
71 123 71 228 0 102 24 180 68 221 40 38 143 97 171 98 13 0 49 -14 80 -32z
m460 -234 c-7 -48 -8 -113 -2 -214 5 -80 8 -147 7 -149 -4 -5 -136 20 -155 30
-13 6 -14 20 -7 88 4 44 14 96 22 114 14 35 138 209 143 203 2 -2 -1 -34 -8
-72z m-1010 -32 c65 -90 76 -119 84 -229 l6 -71 -71 -16 c-39 -9 -73 -16 -77
-16 -3 0 -6 78 -6 172 0 95 -4 193 -8 218 -9 52 -10 53 72 -58z m125 -330 c3
-5 -33 -46 -80 -93 -93 -91 -115 -125 -134 -209 -7 -30 -22 -73 -33 -95 -27
-56 -81 -129 -85 -117 -3 11 30 127 83 289 19 56 37 123 41 148 7 51 9 52 93
71 68 15 108 17 115 6z m813 -8 c79 -16 82 -18 88 -48 7 -34 33 -131 90 -329
20 -70 35 -133 33 -139 -7 -20 -98 135 -114 192 -34 124 -45 143 -136 236 -48
49 -88 93 -88 97 0 11 39 8 127 -9z m-61 -86 c86 -90 107 -123 132 -213 11
-39 36 -104 56 -145 29 -60 36 -86 36 -134 0 -157 -65 -248 -205 -284 -109
-29 -270 -33 -330 -8 -32 14 -35 19 -35 56 0 22 -11 68 -25 102 -24 59 -25 71
-25 262 0 190 2 204 24 251 24 52 84 114 149 154 50 30 118 51 137 41 8 -5 47
-41 86 -82z m-609 47 c65 -32 136 -102 168 -166 24 -46 25 -56 25 -245 0 -185
-2 -201 -25 -266 -14 -38 -25 -85 -25 -104 0 -31 -4 -37 -37 -51 -42 -18 -133
-21 -238 -10 -90 10 -128 22 -191 62 -76 48 -99 102 -99 225 0 86 3 101 33
164 17 37 39 96 48 129 23 88 36 110 132 209 82 85 88 90 121 84 19 -3 58 -17
88 -31z m1979 -598 c66 -68 81 -89 69 -94 -11 -4 -31 8 -58 34 -56 53 -112 94
-120 87 -9 -9 2 -32 60 -122 30 -46 56 -97 60 -113 5 -29 4 -30 -13 -19 -11 7
-49 52 -84 101 -36 49 -69 89 -73 89 -14 0 16 -78 74 -192 16 -31 29 -64 29
-73 0 -43 -39 4 -120 145 -50 87 -48 85 -55 78 -3 -3 6 -60 20 -128 19 -87 23
-126 16 -133 -18 -18 -30 4 -56 104 -34 128 -80 219 -111 219 -28 0 -45 -24
-74 -102 -23 -63 -50 -95 -50 -60 0 11 13 80 29 154 16 73 32 150 36 171 5 32
10 37 33 38 15 0 59 10 97 23 l70 24 68 -72 c38 -39 107 -110 153 -159z
m-3212 176 l63 -6 37 -166 c37 -170 43 -211 27 -211 -9 0 -45 78 -56 123 -4
15 -19 36 -33 47 -23 19 -26 19 -43 4 -25 -23 -47 -72 -93 -209 -23 -66 -46
-119 -51 -118 -18 4 -17 40 4 106 25 83 36 157 23 157 -12 0 -39 -42 -102
-159 -44 -83 -70 -110 -70 -75 0 9 25 73 55 141 84 190 75 200 -36 38 -39 -58
-77 -105 -85 -105 -22 0 -16 22 22 78 49 74 105 183 98 193 -3 5 -32 -10 -66
-34 -142 -99 -153 -98 -47 6 41 40 107 107 146 149 l73 77 36 -15 c19 -8 64
-18 98 -21z m808 -278 c39 -73 131 -138 218 -155 29 -6 55 -12 57 -14 2 -2
-19 -72 -47 -157 -51 -155 -70 -246 -89 -419 -12 -112 -54 -208 -125 -286 -45
-51 -136 -122 -136 -107 0 5 10 51 22 103 18 77 22 123 21 245 -1 83 -6 179
-12 215 -14 86 -14 583 0 652 6 29 23 75 38 102 l26 50 6 -100 c3 -61 11 -110
21 -129z m1344 65 c12 -60 13 -118 3 -403 -18 -515 -17 -606 10 -705 13 -46
21 -86 17 -89 -11 -12 -118 80 -161 138 -63 85 -86 163 -120 407 -9 63 -29
153 -45 200 -28 86 -60 201 -60 219 0 5 23 15 50 21 83 19 155 58 183 100 32
46 57 138 57 212 l0 55 26 -42 c14 -24 32 -74 40 -113z m-780 -292 c-10 -127
-29 -214 -77 -343 -22 -60 -50 -136 -61 -169 -15 -42 -23 -54 -29 -44 -7 13
-30 167 -69 463 -5 44 -13 96 -16 115 l-6 35 69 -3 c47 -2 86 3 128 16 33 11
62 20 64 21 2 1 1 -41 -3 -91z m214 64 c25 -5 74 -7 108 -4 61 4 62 4 62 -22
0 -14 -9 -83 -20 -153 -11 -71 -29 -195 -40 -277 -12 -82 -25 -157 -30 -165
-5 -9 -10 -13 -10 -10 0 4 -32 96 -71 205 -67 187 -72 206 -79 314 -4 63 -5
119 -3 123 3 4 12 5 21 3 10 -3 37 -10 62 -14z m-466 -183 c8 -63 20 -161 26
-217 5 -57 20 -146 31 -197 l22 -92 -26 -130 c-31 -152 -69 -268 -124 -376
l-39 -79 -68 138 -69 137 7 89 c4 60 13 102 27 130 39 76 50 122 69 278 15
126 27 181 64 293 25 76 46 146 46 155 1 15 2 15 10 1 5 -8 16 -67 24 -130z
m711 -35 c30 -101 53 -210 65 -300 10 -79 28 -164 40 -195 45 -112 50 -132 57
-218 l6 -89 -36 -59 c-20 -33 -49 -90 -65 -128 l-29 -67 -41 73 c-50 91 -92
215 -127 374 l-26 120 40 235 c22 129 42 262 46 295 8 85 16 128 20 123 3 -2
25 -76 50 -164z m237 -754 c-11 -19 -26 -54 -33 -78 -7 -23 -14 -40 -17 -37
-3 2 -6 57 -7 120 l-3 116 40 -43 39 -43 -19 -35z m-1203 32 c-1 -43 -5 -96
-9 -118 l-7 -39 -11 28 c-7 16 -12 33 -12 38 0 5 -9 28 -21 51 l-21 40 38 39
c21 22 40 39 41 39 2 0 3 -35 2 -78z m-80 -50 c10 -20 28 -66 40 -102 l21 -64
-29 -70 c-31 -75 -72 -227 -91 -336 -16 -97 -48 -188 -81 -236 -27 -40 -100
-94 -127 -94 -18 0 -15 85 7 246 20 142 37 197 107 354 33 76 38 96 42 186 l4
101 42 26 c22 14 42 26 43 26 2 1 11 -16 22 -37z m1370 11 l39 -28 4 -100 c4
-105 0 -91 103 -334 21 -49 30 -96 41 -200 7 -75 16 -162 19 -194 6 -58 6 -59
-17 -52 -93 27 -164 136 -192 293 -25 139 -63 286 -97 370 l-29 73 19 68 c21
76 47 131 61 131 5 0 27 -12 49 -27z m-1224 -171 c59 -119 64 -137 49 -212 -8
-36 -16 -146 -20 -245 -6 -149 -11 -193 -31 -257 -13 -43 -27 -79 -31 -82 -10
-6 -91 45 -119 76 -12 13 -35 47 -50 75 l-29 51 39 164 c21 90 54 210 73 268
20 58 42 138 51 178 9 40 20 69 24 65 4 -4 24 -41 44 -81z m1115 -109 c23 -65
52 -173 65 -239 13 -67 32 -152 41 -188 l16 -65 -26 -45 c-50 -86 -128 -155
-160 -143 -8 3 -24 32 -37 64 -20 51 -23 83 -29 268 -4 117 -13 232 -20 259
-11 43 -11 55 5 100 10 28 34 80 54 116 l35 64 8 -36 c4 -20 26 -89 48 -155z
m-1258 -650 c17 -17 44 -37 59 -44 16 -6 29 -13 29 -16 0 -2 -43 -90 -95 -196
-88 -176 -97 -201 -115 -301 -23 -124 -24 -150 -10 -141 6 3 10 19 10 36 0 36
10 36 49 3 43 -36 53 -82 34 -147 -16 -56 -33 -83 -33 -53 0 9 -4 15 -9 11 -6
-3 -7 -28 -4 -55 5 -46 4 -51 -29 -84 -53 -53 -152 -61 -194 -15 -16 18 -18
39 -19 177 0 152 20 644 31 748 5 46 8 52 39 67 44 21 109 80 136 123 l21 35
35 -58 c19 -32 48 -72 65 -90z m1472 45 c12 -10 40 -25 62 -34 41 -15 42 -17
48 -72 25 -229 36 -440 36 -669 l0 -263 -27 -17 c-19 -12 -45 -18 -81 -17 -61
2 -96 22 -125 73 -16 26 -17 37 -8 63 8 21 8 35 1 42 -7 7 -10 6 -10 -2 0 -7
-4 -12 -9 -12 -10 0 -41 105 -41 139 0 21 63 91 82 91 4 0 10 -16 14 -35 3
-19 10 -35 15 -35 12 0 0 115 -18 175 -32 103 -108 283 -154 368 -27 48 -49
90 -49 95 0 4 21 19 45 34 31 19 60 50 93 101 l47 73 29 -40 c16 -23 39 -48
50 -58z"/>
<path d="M2065 7079 c-67 -13 -105 -31 -105 -49 0 -8 -12 -42 -26 -75 -34 -81
-41 -174 -20 -247 17 -55 16 -58 -3 -77 -18 -18 -19 -23 -6 -76 7 -31 23 -67
35 -80 45 -48 51 -152 16 -276 -29 -98 -52 -123 -162 -178 -59 -30 -84 -36
-169 -42 -108 -8 -181 -30 -257 -78 -93 -59 -144 -227 -120 -397 12 -79 11
-87 -6 -112 -59 -83 -112 -250 -112 -355 0 -33 -8 -46 -69 -108 -80 -81 -130
-170 -184 -324 -95 -271 -160 -414 -274 -600 -11 -18 -43 -42 -79 -60 -74 -37
-216 -154 -212 -175 4 -21 59 -24 103 -6 47 20 45 20 45 -4 0 -10 -18 -44 -40
-76 -42 -61 -73 -140 -68 -176 2 -18 9 -23 29 -21 22 1 25 -2 21 -22 -6 -36
31 -52 58 -25 17 17 21 18 26 5 8 -20 37 -19 57 3 8 9 34 53 57 97 23 44 40
71 37 60 -3 -11 -11 -41 -18 -67 -9 -33 -10 -51 -3 -58 20 -20 43 3 83 83 46
96 73 178 97 301 13 66 25 100 50 135 18 25 47 75 63 110 52 108 158 227 309
346 35 28 81 76 102 108 41 61 82 175 95 261 5 32 19 64 41 92 34 45 62 112
85 202 7 28 16 52 19 52 16 0 71 -130 81 -190 12 -71 6 -189 -17 -342 -8 -54
-14 -156 -14 -227 l0 -129 -50 -135 c-85 -231 -107 -346 -131 -677 -11 -153
-10 -194 3 -315 10 -88 28 -176 46 -236 17 -52 33 -120 37 -150 8 -66 -20
-345 -40 -397 -8 -20 -19 -75 -25 -122 -6 -47 -25 -148 -42 -225 -43 -195 -43
-301 0 -500 35 -167 62 -329 62 -375 0 -17 -20 -79 -43 -138 -24 -59 -51 -127
-60 -153 -10 -25 -40 -81 -67 -124 -52 -82 -63 -131 -36 -154 27 -22 151 -52
223 -54 70 -1 74 0 108 33 36 35 48 65 60 153 3 26 17 72 31 102 28 66 30 91
7 182 -11 47 -17 113 -17 213 l-1 145 57 140 c98 241 147 496 148 766 0 72 5
98 29 156 36 88 51 157 51 236 0 39 8 83 21 117 42 110 87 287 99 385 6 55 21
150 33 210 21 113 30 333 15 386 l-8 27 70 -2 c38 0 70 -2 70 -3 0 -1 -5 -14
-11 -30 -17 -46 -12 -218 11 -338 11 -60 29 -173 40 -250 13 -96 33 -186 64
-286 32 -105 48 -176 55 -251 7 -74 19 -130 41 -189 27 -71 33 -105 40 -225
22 -347 49 -494 124 -667 70 -160 80 -205 80 -342 0 -85 -5 -139 -17 -184 -25
-89 -24 -132 7 -194 14 -30 26 -70 26 -90 0 -47 35 -139 61 -163 16 -14 36
-19 83 -19 92 1 224 16 241 29 9 6 16 28 17 48 1 29 -8 49 -41 93 -49 65 -86
135 -96 184 -4 19 -23 76 -42 125 -46 120 -48 137 -29 209 92 349 97 570 21
942 -57 276 -68 364 -69 515 0 99 4 131 32 230 44 163 56 273 48 480 -9 284
-53 520 -144 777 -38 106 -39 115 -34 205 3 65 -2 148 -18 268 -35 276 -21
408 53 504 14 19 16 16 31 -40 27 -97 46 -142 82 -194 23 -34 39 -73 50 -126
36 -177 77 -243 231 -374 133 -112 225 -220 265 -310 16 -36 43 -92 59 -125
16 -34 38 -106 49 -165 15 -75 35 -137 73 -219 53 -117 76 -146 99 -123 9 9 8
24 -6 68 -24 77 -15 78 18 2 14 -35 37 -76 50 -93 22 -28 26 -29 55 -19 24 10
33 9 42 -2 15 -18 24 -18 43 2 11 10 14 24 10 41 -6 23 -5 24 14 14 15 -8 23
-7 32 5 21 24 -12 111 -81 220 -10 17 -17 38 -14 46 5 13 13 13 61 1 31 -8 62
-12 70 -9 15 6 20 46 6 46 -5 0 -28 18 -53 39 -24 22 -80 60 -124 85 -44 24
-87 53 -96 63 -58 68 -146 271 -270 623 -56 158 -92 222 -175 310 l-71 75 -12
92 c-15 119 -41 201 -87 276 l-37 60 12 91 c18 143 -15 287 -82 356 -62 64
-194 110 -314 110 -88 0 -238 73 -280 136 -32 50 -54 154 -47 228 6 61 11 74
42 108 31 34 36 48 40 100 3 37 0 69 -8 83 -10 18 -10 38 -1 88 18 106 -6 187
-77 260 -38 39 -61 52 -122 71 -96 30 -152 36 -215 25z m226 -46 c113 -45 174
-137 173 -263 0 -72 -10 -137 -19 -128 -3 2 -9 48 -15 101 -5 53 -17 114 -26
136 -16 42 -58 78 -69 61 -3 -6 1 -10 10 -10 36 0 62 -81 80 -248 6 -55 10
-63 26 -59 41 11 27 -118 -18 -166 -19 -20 -33 -47 -36 -72 -17 -113 -196
-173 -325 -109 -59 29 -65 38 -81 114 -7 30 -23 72 -37 92 -26 37 -49 112 -39
128 3 4 13 6 24 3 26 -7 33 30 25 121 -5 62 -3 78 15 113 11 23 26 43 33 46 7
2 43 2 79 -1 68 -5 184 11 210 30 10 7 4 8 -21 3 -94 -18 -169 -23 -205 -15
-85 19 -132 -47 -122 -175 3 -41 2 -75 -2 -75 -5 0 -14 27 -21 60 -18 85 -7
173 27 225 15 22 27 43 26 46 -5 15 39 41 76 46 23 3 41 9 41 13 0 14 145 2
191 -17z m-195 -788 c88 -27 186 -13 254 35 l32 23 -7 -43 c-10 -57 -55 -189
-93 -270 -32 -70 -46 -110 -38 -110 3 0 44 13 93 29 88 30 213 51 213 36 0
-13 -34 -34 -56 -35 -71 -1 -246 -133 -263 -198 -15 -56 -33 -279 -26 -313 6
-26 4 -29 -18 -29 -25 0 -25 2 -21 53 7 74 -20 301 -39 330 -30 46 -149 126
-219 148 -37 11 -73 28 -80 36 -11 14 -6 15 57 8 38 -4 106 -20 151 -36 45
-16 85 -29 89 -29 11 0 -4 49 -40 131 -41 94 -85 231 -85 266 l0 26 23 -21
c13 -12 45 -29 73 -37z m-78 -110 c17 -49 44 -119 61 -154 17 -36 29 -66 27
-68 -2 -2 -38 8 -81 22 -49 17 -113 29 -174 33 l-96 7 62 34 c80 43 130 94
144 145 16 64 21 78 24 74 2 -2 16 -43 33 -93z m391 39 c16 -69 49 -108 137
-159 l68 -40 -97 -8 c-61 -4 -124 -16 -169 -32 -39 -14 -73 -25 -75 -25 -9 0
0 26 31 92 35 75 76 191 76 215 0 34 18 7 29 -43z m-611 -241 c17 -9 32 -19
32 -23 0 -4 -18 -15 -40 -25 -55 -25 -110 -87 -215 -242 -73 -110 -93 -133
-113 -133 -13 0 -58 -23 -100 -51 l-76 -51 -10 29 c-5 15 -9 84 -10 153 -1
120 0 127 30 191 60 126 182 180 389 171 47 -1 93 -9 113 -19z m1082 5 c147
-46 217 -135 236 -296 8 -71 -12 -222 -30 -222 -6 0 -42 21 -81 47 -38 25 -80
46 -94 47 -22 1 -41 23 -113 131 -100 151 -156 213 -215 241 -23 10 -43 21
-43 24 -2 40 238 60 340 28z m-935 -72 c28 -12 78 -46 111 -73 71 -60 78 -78
91 -248 10 -131 8 -151 -23 -171 -35 -23 -188 -46 -279 -42 -70 3 -90 8 -163
45 -87 44 -172 107 -172 128 0 22 195 297 231 327 38 31 99 57 134 57 11 1 43
-10 70 -23z m639 -3 c48 -25 112 -99 201 -233 l83 -125 -46 -43 c-26 -24 -85
-62 -132 -85 -99 -48 -170 -57 -302 -37 -108 15 -156 35 -164 67 -4 14 -2 85
4 159 8 99 16 143 29 167 22 37 150 132 197 146 37 12 89 5 130 -16z m-1065
-404 l43 -32 -7 -106 c-10 -168 -62 -339 -122 -403 -27 -28 -248 -126 -260
-114 -10 10 -21 110 -22 203 -1 110 22 222 62 301 30 59 39 69 93 96 33 17 75
43 94 58 45 36 67 35 119 -3z m1488 -19 c41 -27 83 -50 93 -50 13 0 30 -23 58
-79 52 -103 78 -238 68 -354 -9 -113 -17 -157 -28 -157 -5 0 -57 20 -117 45
-110 47 -153 80 -184 140 -26 51 -65 216 -71 300 -4 44 -9 94 -12 111 -5 28
-1 35 38 62 23 17 51 31 62 32 10 0 52 -22 93 -50z m-1349 -74 c38 -19 94 -42
126 -51 57 -17 58 -17 52 -48 -4 -18 -9 -149 -12 -292 -5 -240 -4 -268 16
-360 11 -55 26 -131 31 -170 21 -139 60 -337 79 -397 11 -34 18 -64 16 -66 -2
-2 -24 23 -49 55 -53 69 -218 224 -272 255 -23 14 -26 127 -8 293 10 88 18
226 18 306 l0 146 -42 84 c-38 74 -43 92 -43 150 0 64 8 129 16 129 3 0 35
-15 72 -34z m1146 -27 c11 -106 7 -130 -25 -187 -69 -122 -81 -240 -50 -478
21 -159 28 -349 13 -369 -4 -6 -46 -43 -93 -82 -99 -82 -153 -141 -251 -270
-39 -52 -72 -92 -75 -90 -2 3 8 31 22 63 49 109 95 304 120 499 3 28 17 102
31 165 25 111 26 123 21 390 -2 151 -8 284 -11 295 -6 19 -1 22 51 33 32 6 95
30 138 51 44 22 85 40 91 40 6 1 14 -25 18 -60z m-390 -25 c77 -8 75 -4 83
-161 l6 -112 -38 -15 c-48 -20 -90 -20 -186 0 l-77 17 -6 51 c-3 28 -6 97 -6
153 0 98 1 102 23 105 12 2 48 -4 79 -14 32 -10 87 -20 122 -24z m-246 -116
l-3 -152 -85 -17 c-110 -23 -161 -23 -206 -1 l-37 17 6 112 c3 61 10 120 16
131 8 15 25 20 83 25 40 4 96 13 123 21 28 7 63 14 78 15 l28 1 -3 -152z
m-219 -208 c21 0 73 7 116 16 42 9 83 13 91 10 22 -8 20 -248 -2 -267 -23 -19
-211 -25 -270 -9 l-44 13 0 133 0 133 35 -15 c19 -7 52 -14 74 -14z m331 15
c83 -18 142 -19 184 -1 l33 14 7 -76 c8 -99 7 -164 -2 -179 -4 -6 -20 -17 -35
-22 -35 -14 -217 -14 -251 -1 l-26 10 0 128 c0 71 3 132 7 135 8 9 6 9 83 -8z
m-1136 -148 c4 -36 13 -70 19 -75 8 -6 51 7 126 39 l114 48 -6 -47 c-8 -68
-42 -169 -77 -229 -21 -37 -63 -80 -141 -144 -129 -107 -226 -217 -273 -311
-19 -37 -37 -71 -41 -77 -4 -7 -31 7 -73 36 -37 26 -69 48 -70 49 -2 2 32 93
77 204 45 111 81 206 81 212 0 24 75 197 107 247 19 30 58 78 86 108 59 63 58
63 71 -60z m2175 37 c69 -73 113 -154 165 -300 19 -54 64 -177 101 -273 58
-153 64 -176 50 -184 -9 -5 -41 -28 -70 -52 l-54 -44 -11 37 c-32 100 -140
234 -292 362 -129 110 -166 159 -202 274 -33 106 -39 146 -23 146 6 0 59 -21
117 -45 62 -27 108 -41 113 -36 5 5 14 48 20 95 5 47 13 86 17 86 4 0 35 -29
69 -66z m-1319 -179 c63 0 127 3 143 8 l27 7 0 -113 c0 -75 -4 -117 -12 -125
-7 -7 -29 -12 -51 -12 -39 0 -187 34 -217 50 -16 8 -50 133 -50 181 0 17 4 19
23 12 12 -4 74 -8 137 -8z m499 -17 c0 -18 -8 -62 -17 -98 l-17 -65 -70 -23
c-38 -13 -97 -26 -131 -29 l-61 -5 -7 32 c-3 18 -6 71 -6 119 l0 86 122 -3
c69 -2 134 1 148 7 38 15 40 14 39 -21z m-511 -219 c42 -12 95 -19 125 -18
l52 3 3 -109 c2 -61 0 -210 -4 -332 -7 -249 -6 -246 -75 -200 -75 49 -153 279
-189 552 -6 44 -13 93 -16 109 -5 25 -4 28 12 22 11 -4 52 -16 92 -27z m472
27 c0 -24 -26 -187 -46 -291 -35 -180 -117 -399 -153 -409 -63 -18 -57 -39
-64 212 -4 125 -4 276 -1 335 l7 107 46 1 c25 0 80 11 121 24 83 25 90 27 90
21z m-769 -324 c4 -160 -12 -254 -56 -327 -29 -51 -97 -128 -137 -157 l-31
-22 7 55 c15 116 93 397 142 514 l15 36 29 -21 c27 -19 30 -27 31 -78z m1103
-39 c50 -152 90 -310 102 -399 l7 -58 -54 48 c-69 61 -105 107 -137 176 -24
50 -26 67 -26 188 l-1 134 28 24 c15 13 30 24 32 24 2 0 24 -62 49 -137z
m-991 -5 c74 -74 266 -320 301 -387 16 -32 18 -51 13 -161 -3 -69 -13 -165
-22 -215 -9 -49 -25 -147 -35 -217 -18 -118 -69 -320 -90 -357 -7 -12 -9 -5
-10 24 -1 101 -105 646 -159 833 -10 37 -25 92 -32 122 -6 30 -24 91 -38 135
-24 71 -26 92 -23 188 2 59 8 107 12 107 5 0 42 -33 83 -72z m861 -61 c0 -74
-6 -141 -12 -153 -42 -79 -217 -863 -238 -1067 -3 -32 -7 -57 -9 -55 -15 15
-77 268 -86 347 -5 53 -22 155 -36 226 -42 215 -34 389 22 435 8 7 53 63 99
124 70 94 239 276 256 276 3 0 5 -60 4 -133z m-1904 23 c26 -17 55 -38 64 -49
15 -17 15 -21 -9 -63 -15 -26 -36 -95 -49 -161 -24 -115 -92 -293 -122 -318
-17 -14 -18 -17 6 60 21 65 17 89 -13 78 -8 -3 -33 -44 -56 -91 -69 -138 -97
-142 -41 -6 17 40 30 79 30 87 0 34 -28 0 -75 -90 -27 -53 -56 -97 -62 -97 -7
0 -13 2 -13 3 0 16 45 129 65 163 27 45 31 64 15 64 -11 0 -84 -106 -94 -137
-4 -11 -14 -27 -23 -35 -15 -12 -15 -9 -9 27 9 46 36 101 77 158 21 30 29 51
29 84 0 23 -3 43 -7 43 -5 0 -21 -9 -38 -20 -16 -11 -43 -20 -60 -19 -30 0
-30 0 27 53 32 29 90 70 130 92 73 40 88 55 140 153 16 28 31 51 35 51 3 0 27
-14 53 -30z m2936 -41 c33 -69 79 -114 162 -156 31 -15 79 -49 106 -75 l51
-47 -30 -1 c-16 0 -45 9 -63 20 -18 11 -35 20 -37 20 -3 0 -5 -21 -5 -46 0
-37 7 -56 35 -94 20 -27 44 -74 55 -106 23 -66 23 -64 11 -64 -5 0 -11 10 -15
23 -7 26 -95 147 -107 147 -15 0 -11 -14 31 -103 22 -47 40 -97 40 -113 0 -37
-7 -28 -65 83 -46 89 -75 124 -75 91 0 -7 14 -49 30 -91 32 -82 35 -97 22 -97
-11 0 -79 121 -88 154 -7 27 -48 56 -61 42 -4 -3 2 -38 14 -76 11 -39 17 -70
13 -70 -14 0 -111 229 -120 286 -19 106 -32 158 -52 197 -11 22 -17 45 -14 52
6 16 105 85 122 85 5 0 24 -28 40 -61z m-1933 -329 c31 -113 68 -262 83 -331
l26 -126 -30 -179 c-17 -98 -34 -216 -37 -262 -8 -97 -15 -96 -70 2 -39 71
-139 307 -155 366 -17 61 -40 264 -40 346 0 118 13 164 69 238 28 36 58 88 68
116 10 27 20 46 24 42 3 -4 32 -99 62 -212z m937 163 c12 -27 38 -68 58 -93
21 -25 43 -52 49 -61 7 -8 17 -58 24 -110 16 -137 -8 -344 -57 -488 -38 -115
-139 -331 -171 -371 l-21 -25 -7 70 c-4 39 -20 155 -36 258 -16 103 -29 201
-29 217 0 25 49 243 96 425 20 79 65 225 70 225 2 0 13 -21 24 -47z m215 -268
c15 -92 23 -333 14 -408 -14 -110 -150 -477 -178 -477 -29 0 -68 89 -58 134 3
12 30 86 61 166 73 187 90 277 90 496 l1 171 33 -26 c19 -16 34 -38 37 -56z
m-1379 58 c-15 -56 -16 -171 -1 -298 19 -167 31 -212 100 -375 48 -113 52
-129 46 -172 -8 -47 -34 -98 -51 -98 -20 0 -103 195 -165 390 -26 83 -27 89
-21 248 10 257 13 274 50 300 37 27 49 28 42 5z m363 -537 c30 -175 43 -281
44 -378 1 -58 -1 -109 -5 -113 -6 -7 -69 23 -102 49 -17 14 -18 26 -14 118 6
110 48 388 59 388 4 0 12 -29 18 -64z m631 -102 c12 -72 22 -176 23 -230 l2
-99 -49 -32 c-75 -51 -76 -50 -76 77 0 109 16 236 47 380 20 92 24 84 53 -96z
m-1019 -95 c43 -120 96 -229 111 -229 19 0 68 59 68 82 0 50 16 51 45 2 42
-72 98 -127 154 -154 42 -19 51 -28 51 -49 -1 -43 -19 -108 -51 -186 -29 -68
-33 -73 -53 -64 -21 10 -21 15 -18 112 2 56 1 99 -2 96 -4 -4 -8 -42 -10 -85
-5 -89 -12 -114 -33 -114 -18 0 -70 54 -98 101 -12 20 -30 35 -43 37 l-23 3
22 35 c14 23 18 39 12 45 -7 7 -19 -8 -36 -43 -26 -53 -82 -117 -92 -106 -3 3
-1 43 5 89 20 164 14 272 -25 410 -19 68 -35 128 -35 133 0 21 12 -7 51 -115z
m1368 -31 c-36 -125 -42 -215 -25 -398 l9 -95 -33 30 c-17 17 -45 55 -60 85
-30 56 -38 57 -19 3 9 -27 7 -34 -18 -60 -15 -17 -40 -48 -55 -71 -18 -27 -36
-42 -58 -47 -17 -4 -34 -4 -37 -1 -3 3 -8 48 -11 100 -2 53 -9 93 -13 90 -11
-7 -11 -98 0 -147 8 -34 7 -39 -15 -54 -14 -9 -26 -14 -29 -12 -14 14 -67 184
-71 229 l-5 55 51 30 c50 29 112 89 156 150 l20 29 23 -47 c23 -48 53 -73 71
-62 15 9 57 95 90 183 46 126 50 135 56 129 4 -3 -9 -57 -27 -119z m-1207
-494 c33 -60 58 -76 136 -89 30 -5 42 -11 42 -24 0 -10 -21 -60 -46 -112 -69
-143 -92 -203 -125 -329 -29 -114 -31 -133 -56 -535 -4 -79 -8 -102 -14 -80
-4 17 -24 93 -44 169 -55 209 -65 307 -65 656 l0 304 47 48 c64 65 84 64 125
-8z m1153 12 l50 -44 -1 -328 0 -329 -52 -252 c-29 -139 -52 -255 -52 -258 0
-3 -4 -3 -10 0 -6 4 -10 57 -10 125 0 145 -16 351 -35 444 -23 109 -82 282
-136 394 -27 56 -49 111 -49 121 0 19 18 31 48 31 55 0 92 22 119 68 50 89 57
90 128 28z m-1326 -786 c7 -41 25 -127 41 -190 16 -63 34 -144 40 -180 15 -87
16 -89 39 -83 19 5 21 13 21 80 0 109 18 352 36 477 19 139 49 233 124 387
l59 124 1 -60 c0 -100 -28 -324 -54 -430 -26 -107 -57 -199 -113 -333 -48
-118 -54 -229 -23 -420 l23 -140 -25 -49 c-14 -26 -28 -75 -32 -107 -8 -71
-37 -140 -64 -155 -12 -6 -41 -11 -65 -11 -64 0 -210 29 -226 45 -19 19 -8 51
40 115 45 59 72 115 84 170 12 60 67 183 75 170 5 -9 9 -9 14 -1 13 20 -8 159
-81 551 -19 106 -12 297 15 420 11 47 26 119 33 160 14 74 14 72 20 -195 3
-148 12 -304 18 -345z m1074 505 c116 -259 158 -453 156 -725 0 -134 0 -135
-14 -83 -8 29 -35 105 -61 170 -65 165 -110 349 -123 512 -11 136 -14 238 -7
230 2 -2 24 -49 49 -104z m372 -130 c38 -222 33 -385 -20 -630 -43 -204 -57
-342 -32 -332 12 5 23 -19 57 -121 43 -131 66 -179 120 -246 22 -29 30 -48 28
-70 -3 -30 -6 -31 -68 -43 -36 -7 -100 -13 -142 -15 -67 -3 -80 0 -96 17 -28
29 -52 99 -52 148 0 24 -9 59 -21 82 -37 68 -39 88 -17 171 10 43 23 120 27
173 5 53 9 77 10 54 1 -35 4 -40 20 -36 15 4 22 20 31 71 6 37 26 132 45 212
42 178 54 285 62 548 3 112 9 198 13 190 4 -7 20 -85 35 -173z"/>
</g>
</svg>
